<?xml version="1.0" standalone="no"?>
<!DOCTYPE svg PUBLIC "-//W3C//DTD SVG 20010904//EN"
 "http://www.w3.org/TR/2001/REC-SVG-20010904/DTD/svg10.dtd">
<svg version="1.0" xmlns="http://www.w3.org/2000/svg"
 width="1200.000000pt" height="1200.000000pt" viewBox="0 0 1200.000000 1200.000000"
 preserveAspectRatio="xMidYMid meet">

<g transform="translate(0.000000,1200.000000) scale(0.100000,-0.100000)"
fill="#E4003A" stroke="none">
<path d="M5926 11202 c-3 -5 -61 -12 -128 -15 -322 -17 -486 -29 -516 -38 -18
-6 -81 -16 -140 -23 -59 -7 -116 -18 -127 -24 -11 -6 -54 -16 -95 -21 -41 -6
-93 -15 -115 -20 -181 -43 -353 -93 -412 -117 -17 -8 -36 -14 -43 -14 -14 0
-310 -114 -365 -141 -22 -10 -47 -19 -55 -19 -9 0 -24 -6 -35 -13 -11 -7 -42
-22 -70 -32 -27 -10 -57 -24 -66 -31 -8 -8 -20 -14 -25 -14 -9 0 -105 -49
-254 -128 -41 -21 -104 -59 -140 -83 -36 -24 -85 -55 -110 -68 -58 -31 -188
-118 -220 -148 -14 -13 -28 -23 -31 -23 -3 0 -16 -9 -29 -20 -13 -11 -28 -20
-34 -20 -6 0 -18 -8 -27 -17 -8 -10 -30 -29 -48 -43 -18 -14 -45 -35 -58 -47
-14 -13 -32 -23 -39 -23 -7 0 -14 -4 -16 -8 -1 -4 -43 -44 -93 -87 -49 -44
-99 -89 -111 -100 -11 -11 -47 -42 -80 -70 -75 -64 -202 -190 -279 -279 -33
-38 -83 -94 -112 -125 -28 -31 -72 -85 -98 -119 -25 -35 -63 -83 -84 -105 -45
-50 -101 -131 -101 -146 0 -6 -4 -11 -8 -11 -5 0 -26 -26 -48 -57 -21 -32 -42
-59 -46 -61 -5 -2 -8 -8 -8 -14 0 -5 -18 -35 -40 -65 -22 -31 -40 -60 -40 -64
0 -4 -30 -56 -68 -116 -37 -59 -107 -189 -156 -288 -48 -99 -92 -187 -97 -195
-9 -14 -25 -49 -54 -115 -7 -16 -21 -52 -31 -80 -10 -27 -24 -61 -31 -75 -7
-14 -13 -31 -13 -38 0 -7 -9 -31 -19 -55 -23 -50 -36 -89 -33 -100 1 -4 -7
-28 -18 -53 -12 -24 -29 -77 -39 -117 -10 -40 -23 -82 -28 -92 -6 -11 -16 -47
-23 -80 -7 -33 -16 -67 -21 -76 -4 -9 -15 -60 -24 -115 -9 -54 -20 -108 -25
-119 -10 -22 -26 -105 -35 -180 -13 -111 -16 -134 -30 -230 -7 -55 -17 -161
-20 -235 -4 -74 -9 -142 -12 -150 -7 -20 -11 -92 -11 -210 0 -52 0 -108 -1
-125 0 -16 3 -41 8 -55 6 -14 12 -108 15 -210 3 -102 7 -194 10 -205 2 -11 7
-54 11 -95 4 -41 9 -79 12 -83 6 -9 6 -15 28 -186 9 -69 21 -131 27 -138 6 -7
7 -13 2 -13 -4 0 -3 -5 4 -12 7 -7 12 -26 12 -42 0 -17 7 -55 14 -83 8 -29 12
-53 9 -53 -3 0 -1 -6 5 -12 5 -7 13 -33 17 -58 4 -25 15 -63 24 -85 10 -22 24
-72 31 -110 7 -39 18 -79 25 -90 6 -11 31 -76 55 -145 23 -69 49 -138 56 -155
7 -16 28 -68 47 -115 61 -147 205 -437 286 -571 9 -15 37 -63 63 -107 26 -45
53 -84 59 -87 5 -4 15 -17 20 -28 15 -34 31 -58 71 -114 21 -28 38 -55 38 -60
0 -6 9 -18 20 -28 11 -10 20 -22 20 -28 0 -5 11 -23 25 -41 33 -41 37 -46 57
-78 20 -30 166 -198 202 -231 13 -12 40 -44 61 -72 21 -27 65 -78 99 -112 33
-34 89 -90 123 -125 90 -92 187 -184 200 -189 12 -5 101 -78 155 -129 21 -19
64 -54 95 -78 32 -24 90 -67 128 -95 86 -65 203 -147 209 -147 3 0 46 -27 96
-61 51 -33 99 -63 108 -67 10 -3 35 -18 57 -33 86 -58 254 -144 425 -219 41
-18 102 -45 134 -61 33 -16 63 -29 67 -29 4 0 20 -5 36 -12 109 -45 312 -117
358 -128 42 -10 188 -54 240 -72 17 -5 64 -16 105 -24 41 -7 93 -18 115 -25
50 -14 122 -26 245 -40 52 -6 104 -15 115 -20 30 -13 225 -30 460 -41 329 -15
472 -12 879 16 93 7 184 18 251 30 17 3 64 10 105 16 41 5 95 14 120 20 25 6
56 12 70 13 14 1 31 6 38 10 7 5 43 13 79 18 37 5 72 14 78 19 6 5 40 16 76
24 91 19 228 61 280 84 24 11 61 23 83 27 36 6 90 27 160 62 17 8 53 18 80 24
30 5 58 17 68 29 9 11 23 20 30 20 19 0 165 71 403 195 143 74 215 116 295
170 41 27 82 54 91 60 63 40 135 91 192 136 37 30 95 74 128 99 33 25 79 61
103 80 23 20 50 42 60 50 133 110 606 583 606 607 0 5 47 61 130 151 16 19 30
37 30 41 0 4 16 26 35 48 19 23 35 44 35 47 0 3 11 19 24 34 34 38 156 220
156 232 0 6 4 10 8 10 5 0 18 17 29 37 28 52 83 146 127 217 20 33 36 68 36
78 0 10 4 18 9 18 6 0 16 11 23 24 78 145 179 375 174 396 0 3 9 19 21 36 12
16 25 43 29 60 4 16 11 34 16 40 4 6 15 36 24 65 9 30 22 63 30 74 8 11 14 28
14 38 0 9 11 44 25 77 14 33 32 88 40 122 9 35 18 70 20 78 3 8 23 89 46 180
23 91 46 173 50 182 5 10 13 59 19 110 12 107 20 159 28 172 3 5 6 25 8 45 1
20 4 50 7 66 7 34 15 118 27 278 5 62 13 141 19 177 5 36 7 162 5 280 -4 220
-5 248 -16 265 -3 6 -9 82 -13 170 -3 88 -10 183 -15 210 -5 28 -16 86 -24
130 -8 44 -18 111 -21 150 -4 38 -13 86 -21 105 -12 31 -29 111 -39 180 -2 14
-13 54 -25 89 -11 35 -20 73 -20 85 0 11 -6 33 -14 47 -7 14 -21 52 -31 85 -9
32 -21 68 -26 79 -4 11 -27 76 -49 145 -23 69 -47 134 -54 145 -7 11 -22 49
-35 85 -20 59 -112 259 -147 320 -8 14 -35 66 -59 115 -51 100 -52 103 -110
195 -23 36 -49 82 -59 102 -9 21 -28 50 -41 64 -14 15 -25 31 -25 37 0 6 -25
43 -55 83 -30 40 -55 78 -55 84 0 5 -7 10 -15 10 -8 0 -15 8 -15 18 0 11 -9
27 -20 37 -11 10 -20 22 -20 27 0 5 -13 21 -28 36 -16 15 -44 50 -62 77 -18
28 -38 55 -44 60 -6 6 -23 26 -38 46 -25 34 -61 75 -135 158 -18 20 -33 39
-33 44 0 4 -7 7 -15 7 -8 0 -15 5 -15 11 0 23 -258 279 -281 279 -5 0 -9 7 -9
15 0 8 -11 20 -24 27 -25 13 -101 76 -191 159 -64 59 -182 149 -194 149 -5 0
-11 4 -13 8 -1 5 -24 23 -50 41 -27 17 -48 36 -48 41 0 6 -6 10 -13 10 -8 0
-22 9 -32 20 -10 11 -22 20 -27 20 -5 0 -19 9 -31 21 -12 11 -43 32 -69 45
-26 13 -50 28 -53 34 -4 6 -35 24 -69 40 -35 17 -71 39 -81 50 -10 11 -23 20
-29 20 -13 0 -88 39 -96 49 -3 4 -70 40 -150 80 -80 40 -149 76 -154 82 -6 5
-19 9 -29 9 -10 0 -31 7 -45 15 -45 24 -138 65 -149 65 -6 0 -24 7 -39 15 -16
8 -37 15 -46 15 -9 0 -20 4 -23 10 -3 5 -34 18 -68 30 -34 11 -120 40 -192 65
-71 25 -141 47 -155 50 -14 2 -88 21 -165 41 -77 20 -171 41 -210 47 -38 5
-83 15 -100 22 -16 7 -75 16 -130 20 -55 4 -104 10 -110 13 -5 3 -19 8 -30 9
-38 7 -340 31 -475 38 -74 4 -139 11 -144 16 -13 11 -163 12 -170 1z m289
-922 c6 -4 49 -8 97 -9 48 -2 100 -5 115 -7 15 -2 82 -9 148 -15 66 -6 134
-17 152 -25 17 -8 42 -14 55 -14 41 0 202 -31 233 -45 17 -7 46 -16 65 -18 30
-4 81 -20 155 -48 11 -4 38 -12 60 -17 22 -6 78 -24 125 -42 47 -17 103 -37
125 -45 22 -7 54 -20 70 -29 17 -9 34 -16 38 -16 5 0 25 -7 45 -16 112 -49
171 -77 202 -94 19 -11 76 -40 127 -65 50 -24 94 -49 98 -55 4 -6 17 -15 28
-21 12 -5 49 -25 82 -44 33 -19 69 -39 80 -44 12 -5 27 -16 34 -25 7 -9 19
-16 26 -16 7 0 15 -7 19 -15 3 -8 10 -15 15 -15 13 0 70 -39 130 -89 27 -23
51 -41 55 -41 3 0 19 -13 34 -30 16 -16 33 -30 37 -30 43 0 518 -461 627 -608
22 -29 46 -56 54 -59 8 -3 14 -11 14 -18 0 -7 7 -15 15 -19 8 -3 15 -12 15
-20 0 -8 4 -16 8 -18 10 -3 63 -75 118 -158 20 -30 41 -58 46 -61 9 -6 29 -37
44 -69 4 -8 24 -40 45 -70 43 -63 89 -145 155 -275 25 -49 56 -110 70 -134 13
-24 24 -48 24 -53 0 -5 23 -55 50 -112 28 -57 50 -107 50 -113 0 -5 9 -28 20
-50 11 -23 24 -62 30 -88 6 -26 19 -66 29 -89 10 -22 24 -66 31 -96 7 -30 17
-63 22 -73 7 -13 5 -26 -7 -44 -16 -23 -21 -25 -73 -20 -32 3 -86 12 -122 21
-36 9 -99 24 -140 34 -41 10 -95 28 -120 39 -25 11 -52 23 -60 27 -8 3 -22 10
-30 15 -8 5 -51 26 -95 48 -43 21 -99 53 -122 70 -23 18 -60 40 -80 48 -21 9
-51 29 -68 44 -16 16 -49 42 -71 57 -41 29 -255 193 -264 204 -3 3 -30 25 -60
50 -30 25 -56 48 -58 52 -2 4 -34 31 -70 60 -37 28 -76 60 -87 70 -90 81 -121
107 -126 108 -3 0 -25 18 -50 40 -24 22 -73 61 -109 87 -36 25 -69 51 -75 57
-8 10 -44 38 -113 91 -7 5 -22 18 -33 28 -10 9 -26 17 -34 17 -8 0 -15 4 -15
9 0 5 -21 21 -47 37 -27 15 -64 40 -84 55 -19 15 -47 31 -62 34 -15 4 -27 11
-27 16 0 5 -9 9 -20 9 -11 0 -23 6 -26 13 -2 7 -26 23 -52 36 -26 13 -59 30
-74 38 -14 7 -35 13 -46 13 -11 0 -25 7 -32 15 -7 8 -19 15 -27 15 -8 0 -46
14 -85 30 -38 17 -77 30 -87 30 -9 0 -29 7 -46 16 -16 9 -46 20 -65 24 -19 4
-87 19 -150 33 -63 14 -137 29 -165 33 -27 3 -54 10 -60 14 -5 4 -86 13 -178
21 -138 10 -202 10 -355 0 -103 -7 -191 -16 -197 -21 -5 -4 -34 -10 -63 -14
-66 -9 -298 -72 -334 -91 -14 -8 -34 -15 -43 -15 -18 0 -280 -127 -330 -160
-16 -11 -38 -23 -47 -26 -10 -4 -18 -9 -18 -13 0 -4 -15 -14 -32 -23 -18 -8
-65 -42 -104 -74 -40 -33 -86 -70 -104 -84 -29 -23 -93 -82 -177 -162 -18 -17
-33 -37 -33 -44 0 -8 -5 -14 -11 -14 -12 0 -79 -69 -79 -82 0 -11 -79 -112
-91 -116 -5 -2 -9 -8 -9 -14 0 -6 -15 -34 -34 -62 -48 -73 -152 -288 -160
-331 -4 -20 -16 -52 -26 -71 -11 -18 -27 -78 -35 -131 -9 -54 -22 -109 -28
-122 -13 -27 -18 -573 -5 -626 4 -16 12 -50 18 -75 31 -135 86 -276 120 -310
3 -3 12 -17 20 -31 25 -44 53 -80 90 -114 89 -83 116 -105 128 -105 6 0 12 -6
12 -14 0 -8 12 -17 28 -21 15 -3 34 -12 42 -19 8 -7 35 -21 60 -31 138 -57
131 -51 166 -150 34 -98 103 -229 157 -300 30 -38 154 -165 162 -165 2 0 37
-23 78 -50 41 -27 81 -50 88 -50 8 0 28 -9 44 -20 17 -11 37 -20 47 -20 9 0
40 -11 70 -25 29 -14 69 -25 89 -25 46 0 68 -23 47 -48 -9 -9 -17 -22 -19 -27
-7 -19 -74 -104 -82 -105 -4 0 -30 -16 -57 -35 -27 -19 -54 -35 -59 -35 -5 0
-14 -7 -21 -15 -7 -8 -22 -15 -34 -15 -12 0 -38 -9 -59 -20 -20 -11 -45 -20
-56 -20 -10 0 -35 -7 -55 -15 -58 -24 -360 -21 -494 5 -57 11 -114 27 -125 35
-12 8 -31 15 -43 15 -12 0 -27 6 -33 14 -7 8 -26 17 -44 20 -18 3 -90 40 -160
81 -71 41 -131 75 -135 75 -4 0 -18 14 -32 30 -14 17 -28 30 -32 30 -10 0 -56
40 -137 120 -96 94 -156 165 -182 216 -11 21 -27 44 -35 50 -8 6 -14 16 -14
23 0 6 -3 11 -8 11 -4 0 -13 15 -21 33 -8 17 -26 59 -41 92 -33 74 -63 152
-86 225 -9 30 -20 60 -24 65 -8 11 -32 175 -53 365 -10 85 -11 152 -6 210 4
47 11 117 14 155 4 39 10 84 15 100 5 17 12 63 15 103 4 39 11 74 15 77 4 3
15 35 25 72 9 38 21 77 25 88 4 11 13 40 20 65 6 25 18 59 25 75 37 81 55 125
55 131 0 3 13 25 29 49 16 24 32 54 36 67 5 12 19 41 34 63 14 22 25 42 26 45
0 7 36 58 134 189 69 94 154 188 357 395 6 6 44 40 84 76 40 36 102 92 137
125 35 33 68 62 74 63 5 2 9 9 9 16 0 6 15 20 33 31 17 10 36 24 40 32 4 7 12
13 17 13 5 0 20 10 33 23 13 12 48 43 78 69 30 26 95 85 144 133 50 47 107 97
128 112 20 14 37 29 37 34 0 4 17 25 39 46 21 21 67 72 102 113 35 41 66 77
70 80 4 3 45 60 92 126 80 114 157 245 157 266 0 6 8 22 19 36 25 37 86 228
96 302 2 14 7 36 12 50 6 14 11 110 12 215 2 104 7 198 12 207 5 10 24 22 42
27 34 9 185 3 202 -9z m-1331 -221 c-1 -76 -13 -177 -23 -197 -4 -9 -13 -39
-20 -67 -20 -89 -86 -251 -141 -345 -67 -116 -91 -154 -127 -203 -24 -31 -43
-60 -43 -63 0 -7 -57 -82 -79 -105 -9 -8 -38 -46 -66 -83 -70 -95 -110 -144
-161 -198 -24 -26 -44 -51 -44 -57 0 -5 -6 -14 -13 -18 -13 -8 -127 -139 -209
-242 -21 -25 -38 -52 -38 -58 0 -7 -7 -13 -15 -13 -8 0 -15 -5 -15 -11 0 -5
-11 -22 -25 -37 -79 -87 -203 -240 -226 -281 -8 -13 -22 -33 -31 -43 -10 -10
-18 -25 -18 -33 0 -8 -4 -15 -10 -15 -5 0 -10 -5 -10 -11 0 -5 -19 -38 -42
-72 -24 -34 -49 -74 -58 -89 -37 -67 -90 -174 -90 -182 0 -5 -9 -27 -19 -50
-51 -111 -70 -154 -81 -191 -6 -22 -15 -49 -20 -60 -20 -46 -71 -226 -76 -271
-3 -27 -12 -71 -19 -99 -8 -27 -21 -135 -29 -240 -17 -208 -9 -462 21 -600 36
-173 45 -211 53 -220 4 -5 15 -44 25 -85 9 -41 22 -82 30 -90 7 -8 30 -58 50
-110 20 -52 44 -106 53 -120 26 -39 34 -53 76 -132 21 -40 41 -75 45 -78 3 -3
11 -12 16 -21 22 -35 131 -176 165 -213 105 -114 137 -146 302 -292 14 -13 29
-24 33 -24 3 0 11 -5 18 -10 52 -45 152 -112 202 -134 33 -15 69 -32 80 -38
56 -31 157 -78 169 -78 4 0 28 -9 53 -21 25 -12 76 -25 112 -31 36 -5 74 -14
84 -19 10 -5 70 -14 135 -19 64 -5 149 -14 189 -20 98 -13 126 -13 218 -1 44
6 120 15 169 21 49 5 94 14 100 19 6 5 40 16 75 25 34 9 75 24 90 34 14 10 47
28 72 40 26 12 64 36 85 52 22 17 52 40 69 53 16 12 45 38 63 57 39 42 142
193 142 209 0 7 6 22 14 34 8 12 17 38 20 58 4 20 14 43 24 51 24 21 127 68
149 68 10 0 33 9 51 20 18 11 38 20 46 20 7 0 32 13 54 30 23 16 44 30 47 30
29 0 245 212 275 270 10 19 27 53 39 75 11 21 21 45 21 52 0 6 6 16 13 20 7 4
20 40 30 78 10 39 23 74 28 80 5 5 9 19 9 31 0 12 8 32 18 44 19 23 19 23 50
4 18 -10 32 -24 32 -31 0 -7 6 -13 13 -13 17 0 114 -104 123 -132 4 -13 18
-40 30 -60 13 -21 24 -42 24 -48 0 -6 6 -21 14 -33 51 -78 67 -411 30 -612 -7
-37 -48 -156 -73 -210 -10 -22 -22 -51 -25 -65 -12 -40 -36 -88 -67 -135 -16
-23 -29 -47 -29 -52 0 -6 -9 -18 -20 -28 -11 -10 -20 -24 -20 -32 0 -7 -4 -13
-8 -13 -4 0 -27 -27 -51 -61 -42 -60 -167 -186 -246 -249 -55 -45 -245 -170
-257 -170 -8 0 -144 -62 -200 -91 -10 -5 -26 -9 -35 -9 -10 0 -31 -7 -47 -15
-15 -8 -73 -22 -128 -30 -56 -8 -108 -21 -116 -27 -21 -18 -588 -18 -623 -1
-13 7 -74 19 -136 27 -65 8 -122 21 -135 30 -12 9 -32 16 -43 16 -35 0 -237
75 -330 122 -150 76 -159 80 -200 108 -22 14 -65 43 -95 63 -30 20 -68 48 -84
62 -16 14 -33 25 -37 25 -5 0 -24 15 -42 33 -19 17 -54 48 -78 67 -98 77 -399
377 -399 397 0 2 -12 16 -27 31 -16 15 -47 52 -71 82 -24 30 -71 84 -105 120
-34 37 -73 81 -87 99 -76 99 -313 351 -406 430 -21 18 -67 60 -102 92 -34 33
-64 59 -67 59 -7 0 -109 71 -115 80 -3 4 -25 18 -50 30 -25 12 -49 29 -53 36
-4 8 -16 14 -25 14 -10 0 -33 13 -52 30 -19 16 -44 29 -55 30 -11 0 -36 8 -55
19 -19 10 -60 26 -90 35 -30 9 -63 21 -73 27 -23 13 -142 37 -242 49 -44 6
-105 15 -135 20 -38 7 -67 6 -95 -1 -47 -13 -122 -7 -141 13 -7 7 -14 29 -15
48 -1 35 16 271 25 345 2 22 7 69 10 105 6 56 16 130 41 290 3 19 12 58 19 85
8 28 17 76 20 108 3 32 11 65 16 75 6 9 20 51 31 92 11 41 24 91 30 110 6 19
12 45 14 56 1 12 8 31 14 43 6 11 21 51 32 88 12 38 24 73 27 78 4 6 7 12 8
15 2 12 25 66 34 83 6 9 20 43 32 75 11 31 24 62 28 67 4 6 10 23 14 39 4 17
15 41 25 55 10 14 25 43 32 65 8 21 20 41 26 43 7 3 13 10 13 17 0 11 10 31
47 96 11 19 35 62 53 94 18 33 48 81 66 106 19 26 34 49 34 52 0 17 225 331
282 393 15 17 60 68 99 115 101 118 347 366 389 392 19 11 49 36 65 53 38 41
401 315 417 315 6 0 33 18 58 39 26 22 62 47 81 55 45 22 75 40 96 58 10 8 34
21 53 28 19 7 46 21 60 30 25 17 47 29 170 89 36 18 73 37 82 42 10 5 24 9 32
9 7 0 19 7 26 15 7 8 24 15 39 15 14 0 51 13 82 29 31 15 73 31 92 35 20 4 49
13 64 21 15 8 34 15 41 15 7 0 23 6 35 12 37 21 195 59 222 53 6 -1 10 -26 9
-56z m1736 -1810 c41 -6 102 -14 135 -19 76 -10 175 -35 289 -71 49 -16 97
-29 107 -29 9 0 22 -7 29 -15 7 -8 23 -15 36 -15 13 0 28 -9 34 -20 6 -11 19
-20 29 -20 16 0 138 -56 151 -70 5 -5 40 -26 80 -47 14 -7 43 -27 65 -43 22
-16 67 -48 100 -70 33 -22 78 -56 100 -74 22 -19 60 -52 84 -73 119 -102 493
-491 499 -519 2 -8 10 -14 17 -14 8 0 17 -9 20 -20 3 -11 11 -20 16 -20 5 0 9
-6 9 -13 0 -7 8 -19 18 -28 9 -8 45 -47 79 -85 34 -38 79 -87 100 -110 21 -23
70 -76 108 -119 39 -42 82 -89 98 -103 15 -14 27 -31 27 -39 0 -7 7 -13 15
-13 8 0 15 -4 15 -8 0 -4 12 -15 28 -24 15 -10 52 -41 82 -70 68 -65 186 -158
200 -158 5 0 10 -3 10 -7 0 -5 23 -21 50 -36 28 -16 50 -32 50 -38 0 -5 6 -9
13 -9 7 0 31 -13 53 -30 21 -16 53 -32 71 -36 18 -3 37 -12 44 -20 6 -8 17
-14 23 -14 6 0 38 -13 71 -30 33 -16 68 -30 77 -30 10 0 44 -9 75 -19 32 -11
85 -22 118 -26 33 -4 98 -15 145 -25 47 -10 90 -15 95 -10 6 4 39 8 75 10 36
1 76 3 89 4 18 1 30 -8 43 -31 18 -29 18 -41 9 -155 -6 -68 -13 -163 -16 -213
-2 -49 -9 -108 -14 -130 -5 -22 -12 -69 -15 -105 -13 -138 -18 -175 -24 -185
-7 -12 -6 -2 -27 -130 -9 -55 -20 -107 -24 -115 -11 -21 -68 -208 -75 -250 -6
-31 -54 -160 -91 -245 -8 -17 -16 -41 -18 -55 -4 -23 -25 -73 -78 -186 -10
-23 -19 -47 -19 -54 0 -8 -6 -21 -14 -29 -16 -18 -86 -151 -86 -164 0 -5 -14
-28 -30 -52 -16 -24 -30 -53 -30 -64 0 -12 -5 -21 -10 -21 -6 0 -13 -8 -17
-17 -4 -10 -19 -37 -35 -60 -15 -23 -28 -46 -28 -52 0 -6 -4 -11 -8 -11 -5 0
-19 -19 -31 -42 -22 -43 -117 -179 -146 -209 -8 -9 -15 -21 -15 -27 0 -7 -4
-12 -8 -12 -4 0 -15 -13 -25 -29 -20 -34 -52 -72 -247 -291 -90 -101 -267
-277 -314 -312 -22 -15 -63 -50 -91 -76 -28 -26 -71 -63 -95 -81 -25 -19 -53
-43 -63 -53 -10 -10 -23 -18 -30 -18 -7 0 -39 -23 -72 -50 -33 -28 -65 -55
-72 -60 -6 -5 -29 -19 -50 -31 -21 -12 -48 -30 -61 -40 -13 -10 -44 -28 -70
-40 -26 -12 -63 -35 -82 -49 -42 -33 -243 -140 -263 -140 -7 0 -28 -11 -46
-24 -18 -14 -63 -37 -99 -52 -37 -15 -89 -37 -117 -50 -27 -12 -70 -27 -95
-34 -25 -7 -47 -15 -50 -19 -6 -10 -83 -36 -185 -65 -44 -12 -98 -30 -120 -40
-55 -24 -68 -18 -78 34 -8 46 8 205 23 225 4 6 11 30 15 55 17 116 208 494
302 600 22 25 48 60 57 78 17 32 36 59 67 91 8 9 39 48 69 86 29 39 61 77 70
85 9 8 27 31 40 50 13 19 49 62 79 96 31 33 74 82 96 108 22 27 55 64 73 84
19 19 44 52 57 71 12 20 60 78 105 130 45 51 92 110 104 130 21 32 32 46 76
98 6 7 15 24 20 38 5 14 14 25 20 25 5 0 10 6 10 14 0 8 6 16 13 19 6 2 25 31
41 63 16 33 38 69 49 81 11 13 35 51 53 85 75 145 104 204 104 211 0 4 9 26
19 50 11 23 27 67 36 97 9 30 21 64 25 75 19 45 51 165 47 176 -1 3 3 12 9 20
14 17 21 47 30 124 3 33 10 68 15 77 5 9 12 50 14 90 3 40 10 123 16 185 6 62
9 163 5 225 -9 158 -24 327 -31 338 -3 5 -10 34 -15 64 -10 63 -77 281 -95
311 -7 11 -16 33 -20 50 -3 16 -15 47 -25 70 -10 22 -25 56 -33 75 -41 92
-147 260 -239 377 -26 35 -48 67 -48 73 0 5 -7 10 -15 10 -9 0 -20 10 -24 23
-9 20 -243 255 -302 302 -33 26 -167 116 -199 134 -102 55 -215 111 -224 111
-7 0 -29 9 -51 20 -22 11 -48 20 -58 20 -10 0 -31 6 -45 14 -37 19 -103 35
-192 47 -41 6 -89 15 -106 20 -40 12 -563 12 -578 1 -6 -5 -40 -12 -76 -16
-35 -3 -69 -11 -74 -16 -6 -6 -17 -10 -26 -10 -8 0 -32 -9 -53 -20 -20 -11
-41 -20 -46 -20 -6 0 -29 -13 -53 -29 -24 -16 -60 -38 -81 -49 -99 -52 -285
-270 -301 -352 -1 -3 -4 -9 -7 -15 -4 -5 -12 -28 -19 -50 -19 -59 -43 -77
-175 -129 -119 -47 -152 -64 -235 -121 -53 -36 -190 -169 -190 -184 0 -6 -9
-18 -19 -28 -22 -21 -91 -154 -91 -176 0 -8 -4 -17 -8 -19 -9 -3 -52 -130 -52
-153 0 -8 -8 -30 -17 -50 -22 -47 -49 -45 -98 5 -21 22 -45 40 -52 40 -7 0
-13 5 -13 11 0 6 -13 27 -30 46 -29 32 -122 212 -127 243 -1 8 -9 53 -18 100
-25 133 -17 398 14 475 15 37 31 91 31 106 0 8 6 26 14 40 7 15 22 51 31 80
10 30 26 65 36 78 11 13 19 28 19 33 0 5 18 36 40 69 22 33 40 64 40 69 0 13
166 220 198 248 15 12 41 35 57 50 59 52 148 121 220 168 45 30 214 114 230
114 6 0 37 14 70 30 33 16 67 30 76 30 9 0 36 7 60 15 55 20 149 36 259 45
136 11 429 10 510 -1z m431 -979 c30 -10 72 -21 94 -25 22 -4 51 -13 65 -20
22 -11 124 -52 201 -80 15 -6 36 -18 47 -28 10 -9 23 -17 28 -17 5 0 25 -13
44 -30 19 -16 40 -29 45 -30 6 0 21 -10 35 -22 14 -13 43 -35 65 -50 22 -15
61 -47 87 -70 25 -24 56 -50 67 -58 12 -8 23 -21 26 -30 3 -8 25 -37 50 -65
24 -27 45 -54 45 -59 0 -5 13 -21 28 -35 16 -14 32 -33 35 -41 4 -8 18 -33 31
-55 61 -98 135 -264 151 -340 10 -44 21 -85 26 -91 5 -6 11 -33 15 -60 3 -27
9 -67 15 -89 5 -22 10 -56 12 -75 2 -20 6 -41 11 -48 4 -6 2 -20 -3 -30 -7
-13 -7 -22 0 -29 10 -10 7 -290 -4 -393 -16 -138 -39 -297 -47 -315 -4 -11
-13 -40 -20 -65 -6 -25 -20 -63 -30 -85 -10 -22 -21 -53 -25 -70 -4 -16 -17
-54 -31 -83 -13 -29 -24 -55 -24 -58 0 -14 -61 -132 -73 -143 -8 -6 -18 -22
-21 -35 -7 -27 -119 -198 -172 -262 -19 -23 -34 -46 -34 -51 -1 -4 -14 -19
-30 -33 -17 -13 -30 -27 -30 -32 0 -11 -22 -35 -208 -223 -92 -94 -189 -189
-217 -210 -27 -22 -52 -42 -55 -45 -3 -3 -45 -41 -95 -84 -49 -43 -108 -96
-131 -117 -22 -21 -44 -39 -48 -39 -5 0 -31 -22 -60 -48 -28 -27 -87 -82 -131
-122 -96 -87 -179 -173 -247 -255 -28 -33 -60 -69 -72 -81 -39 -39 -226 -304
-226 -322 0 -4 -11 -23 -23 -42 -37 -55 -124 -279 -132 -340 -3 -30 -11 -73
-17 -95 -15 -60 -16 -65 -23 -260 -4 -99 -8 -182 -10 -184 -8 -8 -438 1 -493
10 -122 20 -338 49 -367 49 -17 0 -35 4 -41 10 -5 5 -63 21 -128 35 -65 14
-127 30 -137 35 -10 6 -28 10 -41 10 -13 0 -35 6 -49 14 -15 7 -51 20 -80 27
-30 7 -68 21 -85 30 -17 9 -49 20 -71 24 -23 3 -49 13 -60 20 -10 8 -25 14
-33 15 -16 0 -228 88 -247 102 -6 5 -89 49 -185 97 -223 114 -241 124 -251
139 -4 6 -14 12 -20 12 -7 0 -28 13 -47 30 -19 16 -38 29 -43 30 -4 0 -52 33
-107 73 -56 39 -111 79 -124 87 -36 23 -209 165 -225 183 -7 10 -17 17 -22 17
-10 0 -369 353 -369 363 0 8 -26 39 -96 116 -75 82 -99 112 -117 147 -9 18
-29 45 -45 60 -40 41 -152 203 -193 282 -7 12 -16 22 -21 22 -4 0 -8 6 -8 13
0 7 -9 23 -20 35 -12 12 -18 22 -16 22 7 0 -42 90 -60 111 -8 8 -14 20 -14 25
0 5 -7 23 -16 39 -40 73 -104 201 -104 207 0 5 -20 50 -43 100 -24 51 -50 111
-57 133 -7 22 -16 45 -20 50 -9 14 -64 174 -90 265 -12 41 -26 80 -31 86 -7 8
-1 19 18 34 25 20 35 21 103 15 41 -4 80 -11 85 -15 6 -4 37 -13 70 -18 95
-16 411 -148 453 -189 7 -7 19 -13 25 -13 7 0 30 -14 51 -30 22 -17 44 -30 50
-30 6 0 34 -20 63 -45 28 -25 54 -45 57 -45 7 0 118 -76 142 -98 42 -38 122
-102 127 -102 3 0 19 -12 34 -26 15 -15 60 -53 100 -85 40 -31 83 -68 96 -81
45 -42 91 -83 142 -123 28 -22 54 -46 58 -52 4 -7 43 -39 85 -72 42 -32 86
-68 96 -80 11 -11 24 -21 30 -21 6 0 34 -18 61 -41 66 -54 252 -179 265 -179
5 0 10 -4 10 -8 0 -12 126 -92 144 -92 9 0 16 -4 16 -9 0 -4 28 -18 63 -31 34
-12 69 -29 78 -36 8 -8 20 -14 26 -14 6 0 28 -9 50 -19 21 -11 65 -27 98 -36
33 -10 65 -21 70 -25 6 -5 37 -16 70 -25 33 -10 85 -25 115 -35 30 -10 87 -21
125 -25 39 -4 75 -12 82 -17 13 -10 114 -22 333 -38 164 -12 521 11 600 39 14
5 59 17 99 26 41 10 82 21 90 25 9 5 36 14 61 21 25 7 54 19 65 25 11 7 43 20
70 29 56 18 125 51 200 96 28 16 68 39 91 50 23 11 51 29 62 39 12 11 25 20
31 20 5 0 11 6 14 14 3 7 18 17 33 20 16 4 44 23 62 42 18 19 45 42 60 52 31
20 124 105 191 176 25 27 58 60 72 75 14 14 38 45 54 69 15 23 31 42 34 42 4
0 15 14 25 31 10 17 43 65 73 108 31 42 59 87 65 101 5 14 29 66 53 115 24 50
51 117 61 150 10 33 24 69 31 81 13 21 16 32 29 134 4 30 11 60 16 66 18 24
29 343 18 518 -6 93 -15 176 -19 185 -5 9 -11 34 -15 56 -14 76 -41 147 -92
235 -41 71 -97 150 -106 150 -4 0 -8 4 -8 9 0 10 -68 81 -78 81 -3 0 -17 11
-32 25 -36 35 -173 111 -234 130 -42 13 -57 24 -78 58 -14 23 -30 62 -36 87
-14 56 -96 219 -123 242 -10 9 -19 20 -19 25 0 15 -157 183 -171 183 -3 0 -35
19 -70 43 -35 23 -82 51 -104 61 -22 11 -48 23 -57 27 -40 19 -138 48 -185 55
-29 3 -54 12 -57 19 -7 20 5 55 19 55 6 0 17 11 23 24 6 13 29 37 51 52 22 16
41 34 41 39 0 16 197 111 260 126 30 7 61 18 69 23 39 30 375 27 462 -4z"/>
</g>
</svg>
