<svg width="77" height="76" viewBox="0 0 77 76" fill="none" xmlns="http://www.w3.org/2000/svg">
<path d="M37.7523 75.686L31.3994 64.6824C26.0715 55.4542 29.2333 43.6541 38.4615 38.3262L44.8145 49.3298C50.1424 58.558 46.9806 70.3581 37.7523 75.686Z" fill="url(#paint0_linear_602_2)"/>
<path d="M39.2998 0.484131L45.6527 11.4877C50.9807 20.716 47.8188 32.5161 38.5906 37.844L32.2377 26.8404C26.9097 17.6122 30.0716 5.81205 39.2998 0.484131Z" fill="url(#paint1_linear_602_2)"/>
<path d="M0.925171 37.3114L11.9288 30.9585C21.157 25.6305 32.9571 28.7924 38.285 38.0206L27.2814 44.3735C18.0532 49.7015 6.25309 46.5396 0.925171 37.3114Z" fill="url(#paint2_linear_602_2)"/>
<path d="M76.127 38.8589L65.1234 45.2118C55.8952 50.5398 44.0951 47.3779 38.7671 38.1497L49.7708 31.7968C58.999 26.4688 70.7991 29.6307 76.127 38.8589Z" fill="url(#paint3_linear_602_2)"/>
<defs>
<linearGradient id="paint0_linear_602_2" x1="38.143" y1="71.6568" x2="38.7199" y2="37.3619" gradientUnits="userSpaceOnUse">
<stop stop-color="#AF47D2"/>
<stop offset="1" stop-color="#070707"/>
</linearGradient>
<linearGradient id="paint1_linear_602_2" x1="38.9092" y1="4.51339" x2="38.3322" y2="38.8083" gradientUnits="userSpaceOnUse">
<stop stop-color="#AF47D2"/>
<stop offset="1" stop-color="#070707"/>
</linearGradient>
<linearGradient id="paint2_linear_602_2" x1="4.95443" y1="37.702" x2="39.2493" y2="38.279" gradientUnits="userSpaceOnUse">
<stop stop-color="#AF47D2"/>
<stop offset="1" stop-color="#070707"/>
</linearGradient>
<linearGradient id="paint3_linear_602_2" x1="72.0978" y1="38.4682" x2="37.8029" y2="37.8913" gradientUnits="userSpaceOnUse">
<stop stop-color="#AF47D2"/>
<stop offset="1" stop-color="#070707"/>
</linearGradient>
</defs>
</svg>
